<?xml version="1.0" standalone="no"?>
<!DOCTYPE svg PUBLIC "-//W3C//DTD SVG 20010904//EN"
 "http://www.w3.org/TR/2001/REC-SVG-20010904/DTD/svg10.dtd">
<svg version="1.0" xmlns="http://www.w3.org/2000/svg"
 width="4500.000000pt" height="4500.000000pt" viewBox="0 0 4500.000000 4500.000000"
 preserveAspectRatio="xMidYMid meet">
<metadata>
Created by potrace 1.14, written by Peter Selinger 2001-2017
</metadata>
<g transform="translate(0.000000,4500.000000) scale(0.100000,-0.100000)"
fill="#000000" stroke="none">
<path d="M15796 34390 c-5 -10 2 -9228 7 -9295 15 -207 19 -253 22 -280 1 -16
6 -61 9 -100 4 -38 9 -81 11 -95 2 -14 7 -50 10 -80 3 -30 8 -62 10 -70 2 -8
7 -35 10 -60 2 -25 7 -56 10 -70 3 -14 10 -52 16 -85 10 -58 14 -79 24 -127 2
-13 6 -34 9 -48 4 -20 66 -286 80 -340 94 -370 260 -818 437 -1185 337 -698
782 -1315 1349 -1870 175 -172 146 -145 323 -297 510 -437 1122 -818 1717
-1068 69 -28 139 -58 155 -65 131 -58 680 -238 795 -260 8 -2 44 -11 80 -20
36 -9 72 -18 80 -20 8 -2 49 -11 90 -20 41 -9 84 -18 95 -21 11 -2 34 -7 50
-9 17 -3 37 -8 45 -10 8 -2 31 -6 50 -9 19 -3 46 -8 60 -11 13 -2 42 -7 65
-10 22 -4 51 -8 65 -10 131 -20 150 -23 220 -30 30 -3 73 -8 95 -11 36 -4 68
-7 205 -19 75 -7 409 -19 510 -19 105 0 442 12 505 18 22 2 72 7 110 10 90 8
164 16 195 21 14 2 50 6 80 9 30 4 64 8 75 10 38 7 100 17 134 21 18 2 40 6
50 9 9 3 36 8 61 11 25 3 77 13 115 21 39 9 84 18 100 20 17 3 66 15 110 26
44 11 88 22 98 24 9 2 25 6 35 8 54 13 174 46 181 50 4 3 22 8 40 11 34 6 433
137 486 160 17 7 73 29 125 50 52 21 114 46 137 56 23 11 44 19 47 19 25 0
411 192 622 309 170 94 418 252 598 380 138 98 421 320 505 395 20 18 65 59
101 91 411 366 840 871 1147 1350 186 290 427 752 543 1040 29 72 56 139 61
150 11 26 104 284 112 310 3 11 17 58 32 105 37 118 111 389 130 475 2 11 7
31 10 45 3 14 7 36 10 50 2 14 13 68 24 120 11 52 22 111 25 130 3 19 7 44 10
55 2 11 7 42 10 68 4 27 9 58 12 70 2 11 6 43 9 71 3 28 8 66 11 84 2 17 6 47
8 65 3 17 8 70 11 117 4 47 8 101 10 120 16 142 19 921 19 4930 l1 4535 -6703
0 c-3687 0 -6705 -2 -6706 -5z m13182 -227 c9 -14 7 -8912 -2 -9053 -16 -261
-29 -399 -51 -540 -2 -14 -7 -45 -10 -70 -6 -43 -10 -69 -20 -127 -2 -16 -7
-44 -10 -63 -3 -19 -15 -80 -26 -135 -21 -99 -25 -121 -33 -160 -2 -11 -16
-67 -31 -125 -15 -58 -28 -112 -30 -120 -4 -17 -42 -148 -78 -265 -84 -273
-212 -591 -360 -895 -80 -166 -112 -224 -240 -445 -349 -600 -867 -1206 -1432
-1675 -258 -215 -644 -484 -879 -614 -21 -11 -46 -26 -55 -31 -88 -55 -380
-203 -531 -269 -58 -26 -112 -50 -121 -55 -9 -5 -65 -28 -125 -51 -60 -24
-123 -49 -139 -56 -73 -33 -576 -192 -665 -209 -8 -2 -16 -4 -17 -5 -2 -2 -6
-3 -10 -4 -17 -4 -161 -38 -198 -47 -22 -5 -51 -12 -65 -14 -14 -3 -36 -7 -50
-10 -44 -9 -74 -15 -135 -25 -33 -5 -70 -12 -81 -14 -32 -6 -94 -16 -139 -22
-22 -2 -51 -7 -65 -9 -14 -2 -50 -7 -80 -10 -30 -4 -66 -9 -80 -10 -22 -3 -89
-10 -210 -20 -264 -24 -789 -24 -1020 0 -19 2 -71 6 -114 10 -44 4 -87 8 -97
10 -10 2 -45 6 -78 10 -33 3 -68 8 -79 10 -10 2 -43 6 -72 10 -29 4 -62 9 -74
11 -12 2 -37 6 -56 9 -19 3 -46 7 -60 10 -13 2 -42 7 -64 11 -22 3 -43 7 -46
9 -3 2 -21 6 -40 9 -34 6 -65 12 -105 21 -188 42 -174 39 -270 65 -248 66
-626 191 -770 255 -16 7 -68 29 -115 48 -162 67 -453 209 -598 291 -35 20 -68
36 -73 36 -5 0 -9 5 -9 10 0 6 -6 10 -13 10 -18 0 -349 209 -507 320 -639 449
-1217 1039 -1641 1676 -52 77 -99 149 -106 160 -39 63 -129 212 -139 229 -6
11 -35 63 -64 115 -46 83 -230 453 -230 464 0 2 -12 30 -27 62 -15 33 -27 61
-28 64 0 3 -28 75 -62 160 -105 269 -225 654 -268 860 -2 8 -11 47 -20 85 -9
39 -18 86 -21 105 -3 19 -7 43 -10 52 -6 21 -12 52 -19 98 -3 20 -8 47 -10 60
-3 14 -8 45 -11 70 -3 25 -8 54 -10 65 -6 29 -15 92 -19 128 -2 18 -6 59 -9
92 -4 33 -9 76 -11 95 -3 19 -7 71 -10 115 -3 45 -8 119 -11 165 -9 122 -12
9053 -3 9065 11 15 12948 13 12957 -2z"/>
<path d="M16399 33772 c-12 -2 -14 -571 -12 -4285 1 -2355 4 -4311 6 -4347 18
-232 21 -258 32 -341 3 -20 7 -54 10 -75 5 -43 11 -89 20 -149 4 -22 8 -53 11
-70 2 -16 7 -41 9 -55 12 -59 15 -77 20 -105 5 -25 15 -77 20 -95 1 -3 5 -23
9 -45 42 -215 175 -661 256 -860 5 -11 24 -60 43 -110 19 -49 47 -116 61 -147
14 -31 26 -59 26 -62 0 -9 167 -347 216 -436 433 -797 1072 -1522 1799 -2041
50 -35 92 -66 95 -69 9 -10 255 -168 355 -227 246 -148 542 -295 789 -394 56
-22 110 -45 121 -50 93 -43 564 -195 666 -214 11 -2 29 -7 39 -10 10 -3 28 -8
39 -10 46 -11 58 -13 96 -24 22 -6 58 -13 80 -17 22 -3 42 -7 45 -9 3 -2 25
-6 50 -10 25 -4 47 -8 50 -10 3 -2 24 -6 46 -9 22 -4 51 -9 64 -11 14 -3 57
-10 95 -15 39 -6 81 -13 95 -15 14 -2 50 -7 80 -11 30 -3 69 -7 85 -9 28 -4
124 -13 220 -21 73 -6 379 -18 460 -18 89 0 420 13 475 19 19 1 67 6 105 9 39
3 88 8 110 10 22 3 60 8 85 11 25 3 56 7 70 9 14 3 45 7 70 10 25 3 56 8 70
11 13 2 40 7 60 10 20 3 47 7 60 10 33 6 169 34 200 41 14 3 36 7 50 10 14 3
52 12 85 21 33 8 68 17 78 19 9 2 25 6 35 8 118 27 357 102 547 172 141 51
166 61 200 75 17 7 32 13 35 14 17 6 79 33 199 87 396 180 792 416 1156 689
83 61 152 115 155 118 3 4 30 26 60 51 362 296 759 719 1047 1116 122 167 373
557 373 578 0 1 26 49 58 107 221 397 415 888 542 1373 21 83 42 167 45 186 3
19 8 43 11 52 5 18 11 46 19 93 3 17 8 37 10 45 2 8 6 29 9 45 3 17 7 44 10
60 3 17 8 46 11 65 3 19 8 42 10 50 2 8 7 41 10 73 4 32 8 67 10 77 2 10 6 46
10 79 3 33 8 68 10 79 2 11 6 60 10 109 3 48 8 117 11 153 6 69 12 8595 6
8620 -3 13 -689 15 -6101 15 -3353 0 -6104 -1 -6112 -3z m12011 -201 c6 -1 3
-8333 -3 -8406 -9 -102 -18 -211 -21 -240 -2 -16 -7 -58 -10 -92 -4 -34 -9
-72 -11 -84 -3 -12 -7 -43 -10 -68 -3 -25 -7 -55 -9 -66 -3 -18 -12 -72 -22
-135 -4 -21 -21 -111 -29 -145 -1 -5 -5 -28 -9 -50 -14 -71 -87 -358 -108
-423 -11 -34 -21 -68 -22 -75 -11 -63 -167 -488 -227 -615 -16 -34 -29 -66
-29 -70 0 -14 -186 -383 -245 -487 -89 -155 -177 -298 -197 -321 -10 -11 -18
-23 -18 -27 0 -10 -103 -159 -210 -302 -123 -164 -284 -357 -404 -482 -51 -54
-108 -114 -127 -134 -32 -34 -185 -178 -279 -265 -77 -69 -280 -234 -397 -321
-477 -355 -1051 -657 -1599 -842 -167 -56 -310 -101 -336 -106 -10 -2 -59 -15
-110 -29 -88 -24 -237 -58 -303 -70 -29 -6 -52 -10 -105 -21 -28 -5 -67 -12
-125 -20 -22 -4 -47 -8 -55 -10 -8 -2 -40 -7 -70 -11 -30 -3 -66 -7 -80 -9
-14 -2 -54 -7 -90 -10 -36 -3 -76 -8 -90 -10 -77 -13 -263 -20 -565 -20 -308
0 -409 4 -560 20 -119 13 -137 15 -182 20 -27 4 -59 8 -73 10 -14 2 -43 6 -65
10 -23 3 -52 7 -65 10 -13 3 -42 7 -65 10 -22 3 -47 8 -55 10 -8 2 -28 7 -45
10 -16 2 -41 7 -55 10 -14 3 -38 8 -55 11 -16 3 -102 23 -190 45 -201 50 -178
44 -260 69 -38 12 -74 22 -80 24 -22 5 -211 68 -230 76 -11 5 -47 19 -80 31
-33 11 -73 27 -90 34 -16 7 -61 25 -100 40 -91 36 -129 53 -313 141 -917 440
-1718 1126 -2304 1974 -61 89 -238 367 -238 374 0 2 -25 48 -56 102 -117 207
-241 468 -330 699 -30 77 -59 149 -64 160 -16 36 -118 351 -126 389 -2 10 -8
33 -14 51 -6 18 -12 41 -14 51 -2 10 -16 66 -31 124 -15 58 -29 116 -31 130
-3 14 -11 54 -19 90 -8 36 -17 81 -20 100 -3 19 -10 58 -15 85 -5 28 -12 70
-15 95 -6 45 -11 75 -20 128 -2 15 -6 47 -9 72 -2 25 -7 74 -11 108 -8 78 -12
130 -21 252 -7 93 -13 8360 -6 8390 3 13 667 15 5910 14 3249 -1 5909 -2 5912
-3z"/>
<path d="M20161 32006 c-22 -12 -69 -91 -213 -356 -22 -41 -60 -109 -83 -150
-23 -41 -58 -104 -77 -140 -20 -36 -51 -94 -71 -130 -51 -93 -75 -189 -72
-286 4 -106 9 -128 51 -226 81 -186 191 -491 235 -648 7 -25 14 -49 15 -55 2
-5 6 -23 9 -39 3 -16 8 -33 10 -36 2 -4 7 -22 10 -41 3 -19 8 -42 11 -51 5
-16 9 -35 19 -88 3 -14 7 -36 10 -50 3 -14 8 -45 11 -70 3 -25 8 -53 9 -62 10
-53 19 -165 19 -250 0 -54 3 -99 6 -99 19 -4 250 -4 251 1 1 3 2 34 4 70 3 74
13 196 20 246 13 93 16 108 20 128 2 12 7 37 10 56 9 65 67 305 97 400 37 119
111 334 128 375 10 22 32 76 49 120 18 44 39 93 46 110 47 99 58 257 25 368
-10 34 -52 127 -94 207 -42 80 -104 201 -138 270 -35 69 -65 127 -68 130 -3 3
-36 66 -74 140 -38 74 -74 141 -81 148 -18 19 -66 23 -94 8z"/>
<path d="M24795 32010 c-12 -4 -26 -14 -32 -21 -9 -12 -155 -275 -305 -549
-20 -36 -47 -85 -61 -110 -110 -198 -129 -256 -126 -388 1 -86 17 -151 58
-246 102 -232 213 -547 246 -699 2 -9 6 -20 8 -25 3 -4 8 -25 11 -47 4 -22 13
-64 21 -95 7 -30 16 -71 19 -90 3 -19 8 -46 11 -60 3 -14 8 -45 11 -70 3 -25
8 -56 10 -70 3 -14 8 -86 10 -160 3 -74 7 -140 8 -145 3 -8 226 -13 256 -6 3
0 6 43 6 94 0 87 9 202 19 257 2 14 9 54 15 90 15 96 20 119 35 180 8 30 16
66 19 80 11 58 51 194 95 330 48 144 176 475 192 496 18 22 35 133 33 209 -3
118 -15 159 -84 290 -26 50 -100 192 -163 316 -64 124 -140 271 -169 327 -61
116 -86 136 -143 112z"/>
<path d="M18890 30703 c-236 -40 -437 -273 -446 -518 -2 -71 1 -101 20 -193
15 -69 83 -180 157 -254 70 -70 90 -83 222 -147 154 -74 199 -107 249 -179 30
-44 69 -161 63 -192 -1 -8 -6 -35 -10 -59 -5 -31 -18 -54 -46 -82 -21 -21 -46
-39 -56 -39 -15 0 -15 2 -1 18 31 33 24 88 -14 120 -40 33 -115 17 -159 -35
-49 -58 -33 -168 32 -214 27 -19 46 -23 104 -24 60 0 80 5 137 33 101 49 188
154 213 255 11 41 13 149 4 181 -7 24 -3 35 25 70 70 86 116 221 110 323 -5
94 -42 240 -76 303 -41 77 -63 100 -118 128 -48 25 -63 22 -67 -12 -16 -117
-145 -205 -246 -167 -23 9 -45 51 -41 79 1 6 2 17 3 22 0 6 10 19 21 30 25 25
85 27 156 5 27 -8 52 -15 55 -15 10 0 25 44 24 70 -1 32 10 39 49 33 129 -20
225 -173 262 -418 3 -22 9 -45 14 -50 15 -18 113 -275 105 -275 -3 0 0 -11 5
-26 6 -14 12 -39 15 -57 3 -18 8 -39 10 -47 2 -8 6 -37 10 -65 10 -86 1 -81
137 -79 68 1 126 2 130 3 7 1 5 33 -7 146 -9 83 -12 102 -30 203 -103 577
-429 1037 -792 1118 -35 7 -190 12 -223 7z"/>
<path d="M21249 30690 c-195 -50 -357 -180 -505 -401 -131 -197 -240 -483
-279 -734 -2 -11 -6 -36 -10 -56 -8 -49 -14 -100 -21 -194 l-6 -80 131 0 c82
0 131 3 132 10 1 5 3 19 4 30 19 161 67 335 129 465 17 36 31 72 32 80 30 242
140 425 261 431 50 3 53 0 53 -38 0 -55 12 -70 45 -55 14 7 57 15 95 18 65 6
70 5 95 -20 23 -23 26 -33 21 -64 -3 -20 -15 -45 -27 -54 -38 -32 -122 -18
-185 29 -30 22 -74 104 -74 137 0 26 -19 28 -65 6 -105 -51 -184 -231 -191
-435 -4 -112 27 -214 88 -296 l41 -53 1 -116 c2 -101 5 -122 29 -173 33 -73
114 -153 192 -191 78 -38 187 -43 231 -10 62 46 85 116 61 187 -11 33 -61 74
-100 81 -83 15 -152 -79 -97 -134 24 -24 10 -26 -30 -5 -18 9 -40 35 -54 63
-55 110 -3 287 113 380 32 26 83 52 206 108 193 86 319 248 362 464 7 33 7
148 0 183 -23 115 -68 196 -157 288 -145 149 -325 200 -521 149z"/>
<path d="M23488 30695 c-21 -7 -39 -11 -40 -10 -2 2 -31 -11 -65 -28 -75 -38
-157 -105 -202 -165 -34 -46 -88 -153 -97 -193 -3 -13 -8 -35 -11 -49 -13 -57
-5 -179 18 -252 56 -181 173 -314 349 -395 206 -95 251 -131 302 -240 57 -122
41 -255 -37 -303 -42 -26 -50 -25 -31 2 44 62 -20 146 -100 132 -67 -12 -107
-65 -107 -141 0 -38 6 -61 24 -87 30 -44 60 -58 126 -61 97 -5 182 32 264 116
82 82 103 142 104 285 0 109 1 111 33 149 17 22 39 55 48 75 8 19 19 44 24 55
42 94 35 263 -15 411 -41 122 -112 204 -187 218 -23 4 -26 1 -32 -34 -14 -90
-87 -157 -180 -167 -65 -7 -95 14 -103 73 -5 36 -2 43 23 63 32 25 96 27 173
4 24 -7 46 -11 48 -9 3 2 7 26 11 53 7 43 10 48 32 48 47 -1 98 -26 139 -68
39 -39 95 -135 106 -182 19 -79 42 -195 39 -195 -3 0 9 -26 25 -57 15 -32 41
-92 56 -133 30 -85 29 -82 50 -173 16 -71 20 -93 30 -167 l7 -45 130 0 130 -1
-6 86 c-3 47 -8 96 -11 110 -2 14 -7 45 -10 70 -2 25 -7 56 -10 70 -60 308
-146 531 -286 741 -69 103 -198 240 -269 285 -66 42 -150 86 -150 78 0 -3 -6
-2 -13 4 -41 34 -257 52 -329 27z"/>
<path d="M25929 30705 c-3 -2 -17 -6 -32 -9 -47 -8 -99 -27 -162 -58 -286
-142 -539 -548 -631 -1013 -2 -11 -6 -31 -9 -45 -5 -23 -10 -52 -20 -120 -4
-26 -12 -103 -20 -182 -2 -30 0 -48 8 -50 16 -6 245 -3 250 2 3 3 8 30 11 60
8 67 15 104 31 170 3 11 7 28 9 38 15 59 53 162 97 258 10 23 21 56 24 75 24
151 70 268 132 336 41 46 108 81 150 78 24 -1 27 -5 29 -44 2 -55 15 -68 50
-52 34 15 126 25 159 17 23 -6 53 -48 50 -71 -4 -40 -18 -64 -45 -75 -39 -16
-109 -6 -152 23 -42 29 -87 96 -90 135 -1 17 -8 34 -16 37 -21 8 -86 -30 -122
-71 -85 -97 -143 -335 -117 -478 7 -39 55 -167 66 -176 3 -3 20 -23 37 -45 22
-28 30 -47 26 -65 -11 -53 -4 -167 12 -215 34 -99 103 -176 203 -226 116 -58
235 -44 284 34 29 46 23 136 -12 173 -33 36 -68 52 -107 48 -73 -6 -110 -85
-64 -136 22 -25 -2 -23 -39 3 -78 55 -94 185 -37 306 26 56 117 151 168 174
247 116 252 119 329 197 126 127 176 251 175 427 -1 94 -5 120 -27 179 -45
116 -129 219 -230 283 -87 55 -155 75 -263 79 -56 2 -103 1 -105 -1z"/>
<path d="M19629 29181 c-63 -30 -88 -124 -50 -187 37 -60 27 -59 613 -59 587
0 563 -2 604 61 22 33 23 104 1 138 -42 63 -18 61 -605 61 -436 0 -540 -2
-563 -14z"/>
<path d="M24256 29180 c-90 -46 -95 -171 -9 -227 25 -16 69 -18 561 -18 448 0
539 2 564 14 85 41 91 173 11 227 -26 17 -58 18 -563 19 -458 0 -539 -2 -564
-15z"/>
<path d="M22474 29058 c-13 -6 -53 -68 -100 -152 -275 -498 -393 -720 -399
-753 -5 -21 -10 -45 -12 -53 -10 -42 -8 -151 3 -205 11 -52 50 -154 99 -260
33 -70 135 -362 166 -470 14 -50 49 -188 55 -215 3 -14 10 -43 16 -65 5 -22
12 -51 14 -65 3 -14 7 -36 9 -50 3 -14 8 -42 11 -64 3 -21 8 -48 10 -60 4 -19
12 -95 19 -171 2 -16 3 -68 4 -115 l1 -86 130 0 130 0 1 81 c1 91 3 125 13
210 6 60 22 157 42 260 4 25 38 169 49 215 13 50 59 200 88 290 56 169 84 241
173 445 35 81 46 130 49 220 1 44 -2 71 -21 164 -4 21 -125 262 -271 541 -28
52 -78 150 -112 217 -35 67 -69 127 -76 133 -18 15 -66 19 -91 8z"/>
<path d="M19679 28900 c0 -3 -2 -12 -4 -20 -1 -8 -8 -42 -15 -75 -44 -228
-129 -373 -267 -459 -24 -14 -45 -26 -48 -26 -2 0 4 15 15 33 29 47 26 106 -7
149 -88 113 -290 32 -309 -125 -11 -90 35 -176 120 -219 53 -27 158 -29 236
-4 128 42 261 138 347 251 74 97 147 253 168 358 3 15 7 37 9 50 3 12 6 38 8
57 l3 35 -127 0 c-71 0 -128 -2 -129 -5z"/>
<path d="M20059 28905 c-1 0 -3 -40 -4 -90 -5 -186 -62 -369 -169 -545 -65
-107 -50 -134 77 -136 102 -2 97 -1 97 -20 0 -30 40 -82 72 -93 77 -27 142 -1
176 71 l20 44 75 -1 c133 -3 152 23 90 126 -115 192 -167 358 -178 570 -2 35
-3 67 -4 70 -1 3 -57 5 -126 5 -69 -1 -126 -1 -126 -1z"/>
<path d="M20441 28902 c-5 -2 -8 -9 -6 -15 4 -12 10 -41 21 -107 28 -168 145
-372 278 -488 63 -54 215 -136 276 -148 182 -37 322 53 321 206 0 58 -12 89
-52 134 -43 50 -82 68 -145 69 -42 1 -59 -4 -87 -26 -58 -44 -71 -135 -27
-183 31 -32 14 -30 -41 5 -80 53 -148 128 -182 201 -36 79 -57 133 -61 153 -2
12 -9 40 -14 62 -6 22 -14 60 -17 85 -4 25 -9 47 -12 50 -5 6 -236 7 -252 2z"/>
<path d="M24305 28900 c-2 -4 -9 -36 -15 -72 -30 -194 -113 -360 -223 -446
-73 -59 -123 -77 -80 -30 28 31 23 108 -10 152 -31 40 -72 55 -131 49 -54 -6
-88 -25 -129 -74 -62 -71 -65 -174 -10 -253 40 -56 106 -88 185 -89 89 -1 121
8 225 59 228 112 397 362 438 644 4 25 7 49 8 54 2 11 -252 16 -258 6z"/>
<path d="M24679 28820 c-2 -88 -3 -101 -12 -161 -18 -105 -110 -326 -176 -424
-49 -71 -18 -102 100 -100 l81 2 18 -41 c26 -60 51 -79 115 -84 53 -4 56 -3
95 36 22 22 40 49 40 61 0 24 -2 23 100 25 79 2 94 6 109 35 11 19 10 20 -54
131 -36 63 -103 216 -110 249 -2 9 -8 34 -14 56 -19 74 -24 110 -25 205 l-2
95 -132 0 -132 0 -1 -85z"/>
<path d="M25065 28900 c-1 -3 -1 -13 0 -22 2 -9 5 -34 8 -55 3 -21 10 -51 16
-66 6 -15 9 -27 6 -27 -8 0 34 -111 70 -183 119 -242 372 -423 577 -411 136 8
230 115 213 243 -12 89 -90 164 -181 174 -113 13 -192 -105 -134 -200 11 -18
17 -33 15 -33 -3 0 -24 12 -48 26 -122 76 -201 197 -253 389 -9 32 -25 109
-29 140 -1 11 -3 22 -4 25 -1 7 -252 7 -256 0z"/>
<path d="M21165 27740 c-83 -24 -110 -36 -160 -70 -103 -71 -192 -190 -226
-302 -23 -74 -31 -190 -18 -248 4 -19 10 -48 13 -65 9 -52 85 -190 137 -248
60 -67 157 -133 264 -177 134 -55 216 -125 257 -218 25 -59 29 -75 32 -140 4
-82 -40 -158 -103 -177 l-24 -7 21 26 c42 54 -4 131 -78 129 -79 -2 -130 -61
-126 -148 5 -99 62 -145 176 -140 149 5 286 120 335 281 14 49 17 157 4 191
-6 17 0 32 30 70 21 26 45 62 53 78 50 100 66 233 41 346 -7 35 -16 75 -19 89
-10 52 -72 167 -108 200 -31 30 -103 66 -112 57 -2 -1 -6 -18 -9 -36 -11 -65
-55 -121 -122 -155 -102 -51 -205 23 -149 107 21 30 26 32 82 33 32 0 73 -6
91 -13 54 -22 61 -18 70 39 7 44 11 52 31 53 37 3 114 -38 151 -80 34 -39 88
-143 96 -184 2 -13 7 -31 10 -41 7 -22 13 -50 20 -102 3 -21 21 -71 39 -111
45 -96 83 -211 101 -297 20 -99 28 -153 28 -181 l-1 -25 132 1 131 0 -1 50
c-1 56 -14 196 -19 204 -1 4 -6 29 -9 56 -4 28 -9 58 -12 67 -5 18 -11 45 -20
93 -2 17 -9 44 -14 60 -6 17 -22 66 -36 110 -136 427 -398 739 -689 822 -77
22 -219 24 -290 3z"/>
<path d="M23618 27755 c-2 -2 -19 -7 -38 -10 -112 -19 -256 -103 -366 -212
-212 -212 -383 -579 -439 -943 -3 -19 -7 -46 -10 -60 -8 -49 -14 -96 -20 -175
l-6 -81 132 1 132 0 3 35 c3 30 29 174 38 205 2 6 6 24 11 40 13 52 53 160 83
228 17 36 33 85 37 109 12 70 14 78 31 136 45 156 132 254 236 265 l36 4 5
-50 c4 -27 8 -52 11 -54 2 -2 21 1 43 7 71 21 141 23 169 5 32 -21 44 -53 32
-88 -29 -82 -157 -73 -235 16 -29 33 -53 90 -53 125 0 13 -12 12 -66 -9 -116
-43 -220 -355 -182 -544 14 -68 64 -172 104 -214 27 -29 31 -38 23 -63 -4 -16
-7 -64 -5 -106 7 -205 180 -375 373 -368 94 3 142 48 150 140 7 86 -50 151
-130 149 -33 -1 -47 -7 -69 -31 -31 -36 -30 -73 4 -109 l21 -22 -33 12 c-141
53 -140 278 1 419 47 48 83 70 202 128 125 60 155 79 214 137 94 91 160 211
179 325 15 84 8 201 -15 270 -57 171 -205 317 -373 369 -32 10 -222 21 -230
14z"/>
<path d="M21962 26238 c-15 -4 -41 -21 -57 -38 -24 -25 -29 -39 -29 -83 -1
-37 5 -60 19 -79 41 -55 36 -54 611 -54 l531 1 36 25 c42 28 63 82 53 136 -8
37 -65 93 -99 95 -89 6 -1042 3 -1065 -3z"/>
<path d="M20150 26101 c-10 -9 -92 -151 -183 -316 -91 -165 -178 -325 -195
-355 -110 -196 -125 -242 -126 -375 0 -108 10 -152 57 -255 53 -119 173 -434
192 -510 2 -8 16 -55 30 -105 14 -49 28 -97 30 -105 2 -8 11 -46 20 -85 20
-86 24 -102 30 -140 3 -16 8 -37 10 -45 4 -14 12 -68 20 -130 13 -99 18 -168
19 -250 0 -52 4 -97 8 -100 6 -5 229 -5 248 -1 3 0 6 27 6 59 1 59 11 203 19
260 3 17 7 44 9 60 5 40 30 176 40 217 26 116 41 176 67 265 43 149 131 403
163 475 8 17 26 59 41 95 15 36 33 79 40 95 25 55 33 104 33 195 0 109 -15
171 -66 270 -22 41 -83 161 -137 265 -237 462 -266 514 -288 521 -38 13 -68
11 -87 -5z"/>
<path d="M24781 26104 c-17 -12 -57 -79 -171 -289 -37 -68 -85 -156 -110 -200
-9 -16 -36 -66 -60 -110 -24 -44 -56 -101 -71 -127 -36 -61 -77 -150 -85 -185
-4 -16 -8 -73 -10 -129 -3 -103 8 -171 40 -232 33 -63 139 -339 187 -486 46
-140 121 -424 135 -510 3 -21 8 -48 10 -60 2 -11 7 -41 10 -66 3 -25 8 -56 10
-70 3 -14 8 -86 10 -160 3 -74 7 -140 9 -145 2 -8 224 -13 255 -6 3 0 6 43 6
94 0 83 8 190 19 257 2 14 6 39 9 55 2 17 7 48 11 70 3 22 10 56 15 75 5 19
12 49 15 65 34 193 179 629 285 861 40 89 54 148 54 239 -1 133 -14 177 -100
341 -57 108 -106 202 -271 524 -47 91 -93 173 -103 184 -22 23 -73 28 -99 10z"/>
<path d="M21977 25870 c-42 -223 -123 -371 -252 -459 -22 -15 -48 -31 -58 -34
-15 -6 -15 -4 3 21 30 42 32 81 8 130 -35 73 -128 98 -207 58 -41 -21 -98 -89
-109 -130 -39 -141 64 -268 218 -269 101 0 162 18 269 82 214 127 359 362 397
646 l6 41 -130 -1 -129 0 -16 -85z"/>
<path d="M22369 25885 c-2 -199 -57 -380 -173 -570 -62 -103 -47 -128 77 -131
103 -2 97 -1 97 -24 0 -29 57 -88 96 -99 66 -18 139 24 161 94 l10 30 85 0
c128 1 144 24 84 124 -67 111 -133 265 -152 356 -17 81 -21 117 -23 210 l-1
80 -130 0 -130 1 -1 -71z"/>
<path d="M22754 25915 c27 -201 111 -385 236 -519 85 -91 241 -186 335 -203
74 -13 159 -6 202 16 158 80 157 299 -2 376 -49 23 -109 24 -153 1 -63 -32
-86 -129 -44 -186 28 -37 19 -38 -33 -4 -67 44 -135 116 -171 180 -33 59 -78
174 -88 225 -2 13 -9 43 -14 67 -6 23 -10 45 -11 47 -1 3 -1 13 -1 23 0 15
-13 17 -131 17 l-131 1 6 -41z"/>
<path d="M18860 24793 c-194 -49 -366 -225 -407 -415 -14 -71 -7 -236 13 -293
69 -196 181 -310 394 -404 159 -70 227 -132 270 -248 49 -132 15 -250 -85
-292 l-30 -13 23 25 c67 72 -18 173 -112 133 -51 -22 -78 -59 -84 -116 -5 -59
10 -101 49 -135 55 -45 172 -43 265 6 45 24 127 100 154 144 46 75 68 207 47
284 -7 29 -5 37 16 60 74 79 121 206 119 321 0 41 -3 82 -5 90 -2 8 -7 33 -11
55 -4 22 -13 56 -21 75 -7 19 -13 39 -13 43 -1 18 -44 95 -73 130 -33 40 -69
63 -108 68 -20 3 -25 -1 -28 -25 -8 -59 -54 -125 -104 -152 -80 -41 -158 -31
-176 22 -32 99 49 138 195 94 23 -7 44 -11 47 -9 2 3 6 25 9 50 2 24 5 47 5
52 1 7 20 5 76 -9 46 -11 101 -59 139 -122 36 -60 79 -190 90 -276 4 -26 20
-74 35 -105 29 -57 79 -195 87 -241 3 -14 8 -34 11 -45 4 -11 7 -22 8 -25 0
-3 4 -21 8 -40 4 -19 9 -55 12 -80 10 -80 2 -76 137 -75 72 0 126 4 130 10 4
5 6 26 3 45 -2 19 -7 62 -10 95 -4 33 -8 69 -10 80 -8 61 -16 112 -20 125 -2
8 -7 30 -10 49 -10 58 -54 218 -81 292 -91 252 -250 496 -409 626 -81 67 -207
129 -300 149 -60 12 -191 11 -245 -3z"/>
<path d="M21329 24806 c-2 -2 -22 -6 -45 -9 -179 -25 -385 -177 -532 -394 -39
-58 -122 -215 -161 -303 -19 -45 -62 -172 -63 -187 0 -5 -5 -19 -10 -33 -10
-25 -33 -116 -43 -167 -2 -15 -7 -39 -10 -53 -3 -14 -8 -45 -11 -70 -3 -25 -7
-56 -9 -70 -2 -14 -7 -63 -11 -110 l-6 -86 125 1 c69 0 129 4 133 8 4 4 8 15
9 25 3 28 17 126 22 147 2 11 6 31 9 45 9 46 76 234 101 285 26 53 29 63 39
135 27 194 145 367 255 372 45 2 49 -1 49 -39 0 -61 10 -69 62 -52 24 8 67 16
96 18 44 2 55 -1 77 -23 33 -33 33 -79 0 -111 -40 -41 -113 -34 -189 18 -30
21 -76 107 -76 144 0 18 -4 21 -27 17 -40 -7 -76 -33 -113 -79 -34 -42 -76
-127 -84 -170 -3 -13 -7 -28 -9 -32 -13 -21 -21 -97 -21 -188 0 -119 20 -183
85 -275 l43 -61 1 -112 c0 -99 3 -119 26 -168 29 -61 96 -139 147 -171 92 -57
208 -72 274 -35 95 52 98 206 6 253 -45 23 -68 25 -103 8 -54 -26 -70 -83 -34
-128 18 -23 19 -25 2 -19 -73 25 -113 97 -108 190 4 74 8 90 40 152 43 86 94
126 260 206 127 62 160 83 215 137 148 144 213 325 187 518 -26 193 -182 377
-376 443 -48 17 -211 33 -222 23z"/>
<path d="M23475 24791 c-157 -44 -280 -150 -356 -306 -61 -128 -69 -259 -24
-405 18 -56 58 -133 100 -188 61 -81 135 -138 245 -189 143 -67 176 -85 213
-118 77 -69 118 -154 122 -255 4 -78 -22 -142 -69 -171 -39 -24 -54 -24 -35
-1 26 30 23 75 -7 105 -15 15 -35 28 -45 28 -11 1 -25 2 -31 3 -32 5 -90 -36
-108 -76 -49 -111 23 -216 149 -216 132 1 261 89 327 224 27 54 29 68 30 172
0 108 2 115 28 148 37 46 74 124 91 186 15 58 17 174 4 221 -4 18 -11 47 -14
66 -17 97 -88 231 -143 267 -14 10 -40 20 -57 24 -29 6 -30 4 -43 -44 -16 -62
-50 -108 -96 -130 -20 -9 -38 -17 -41 -17 -2 0 -17 -4 -33 -8 -84 -24 -147 75
-86 136 23 23 31 25 82 20 31 -3 74 -11 95 -17 22 -6 42 -9 45 -5 3 3 9 27 12
53 3 33 9 47 20 47 52 -2 93 -20 138 -60 73 -66 125 -181 148 -330 4 -27 8
-52 9 -55 0 -3 12 -30 27 -60 24 -51 75 -186 83 -220 2 -8 10 -42 18 -75 9
-33 18 -76 21 -95 2 -19 7 -55 11 -80 l7 -45 130 0 130 0 -6 85 c-3 47 -8 96
-11 110 -2 14 -7 45 -10 70 -4 40 -12 86 -19 115 -2 6 -6 28 -10 50 -50 261
-198 577 -361 769 -99 116 -277 240 -376 260 -13 3 -35 8 -49 11 -57 15 -196
12 -255 -4z"/>
<path d="M25890 24793 c-243 -50 -472 -268 -633 -605 -39 -80 -105 -255 -111
-293 -1 -5 -5 -16 -9 -22 -5 -7 -6 -13 -3 -13 3 0 -1 -21 -9 -47 -8 -27 -16
-61 -19 -78 -3 -16 -8 -41 -11 -55 -24 -122 -48 -349 -37 -351 4 -1 62 -2 130
-3 135 -2 127 -6 137 73 9 74 14 98 43 206 24 85 65 198 91 245 11 19 22 55
26 80 18 128 63 248 122 327 40 54 150 106 179 84 5 -3 10 -24 12 -46 3 -52
13 -60 54 -46 49 18 129 24 159 12 51 -19 55 -116 7 -142 -50 -27 -145 -1
-195 53 -27 28 -64 109 -56 121 3 5 0 13 -7 17 -18 11 -79 -16 -117 -53 -48
-45 -103 -167 -117 -257 -4 -19 -10 -51 -14 -70 -15 -65 -3 -181 26 -254 19
-50 36 -79 78 -131 28 -36 31 -46 25 -80 -23 -130 13 -249 104 -344 72 -75
147 -113 236 -117 79 -4 123 15 157 66 20 29 23 45 20 92 -5 64 -29 100 -84
124 -94 40 -179 -61 -112 -133 l23 -25 -30 13 c-68 29 -108 93 -107 174 1 68
7 90 42 162 41 82 103 136 220 190 166 76 183 86 261 163 130 128 190 271 184
440 -4 131 -21 184 -92 292 -126 192 -340 278 -573 231z"/>
<path d="M19631 23279 c-96 -44 -92 -202 6 -234 20 -7 227 -10 560 -10 488 0
531 1 556 18 80 52 83 163 6 218 l-34 24 -529 0 c-468 0 -534 -2 -565 -16z"/>
<path d="M24261 23284 c-70 -30 -98 -126 -56 -191 40 -60 22 -58 606 -57 376
0 542 4 561 12 91 38 87 195 -5 233 -43 18 -1064 21 -1106 3z"/>
<path d="M19679 22994 c-5 -7 -9 -16 -8 -20 3 -13 -10 -79 -33 -164 -44 -164
-140 -305 -247 -364 -48 -26 -70 -27 -35 -1 20 14 29 91 15 127 -5 14 -26 38
-45 53 -70 53 -186 24 -249 -62 -77 -107 -19 -277 108 -314 96 -29 191 -14
312 47 139 71 249 181 328 329 38 72 79 184 90 244 3 19 7 37 9 40 2 3 7 26
10 52 l6 45 -126 0 c-84 0 -128 -4 -135 -12z"/>
<path d="M20059 23005 c-1 0 -2 -40 -4 -90 -3 -119 -14 -184 -50 -290 -30 -88
-81 -196 -130 -275 -56 -90 -37 -114 88 -116 102 -2 97 -1 97 -19 0 -35 33
-77 72 -95 86 -38 174 13 187 110 1 3 37 5 81 5 136 -2 155 24 93 126 -78 128
-128 251 -160 389 -6 28 -15 114 -18 180 -2 36 -3 67 -4 70 -1 4 -234 8 -252
5z"/>
<path d="M20435 23002 c-2 -2 -2 -9 0 -15 4 -12 10 -42 21 -107 9 -53 53 -178
84 -240 137 -268 424 -447 637 -397 160 39 209 254 82 362 -60 50 -125 62
-187 35 -22 -10 -48 -30 -58 -45 -24 -36 -23 -118 1 -145 32 -36 10 -32 -52
10 -135 90 -224 260 -259 495 -3 22 -8 42 -11 45 -5 6 -252 7 -258 2z"/>
<path d="M24305 22989 c-7 -21 -13 -50 -20 -102 -10 -64 -62 -206 -97 -265
-41 -69 -120 -149 -178 -182 l-45 -24 18 27 c38 58 23 149 -29 184 -62 40
-145 33 -208 -19 -67 -55 -94 -137 -70 -216 48 -164 233 -205 443 -97 88 45
115 64 179 127 136 133 226 318 261 538 l7 45 -128 1 c-113 1 -128 -1 -133
-17z"/>
<path d="M24685 22995 c-2 -5 -6 -57 -9 -115 -5 -108 -6 -114 -26 -190 -26
-101 -93 -251 -156 -351 -49 -79 -27 -103 94 -104 47 -1 87 -5 89 -11 33 -99
109 -141 189 -104 38 17 74 63 74 94 0 18 -3 18 102 20 64 1 82 5 99 22 l20
21 -70 134 c-61 117 -115 249 -127 313 -12 65 -17 110 -19 186 -2 47 -3 87 -4
90 -2 11 -253 6 -256 -5z"/>
<path d="M25065 22999 c-4 -5 -1 -27 9 -81 9 -44 15 -70 21 -88 3 -10 7 -27 9
-37 12 -59 94 -222 141 -282 104 -130 225 -216 365 -259 116 -35 221 -18 282
46 48 50 61 78 64 140 7 136 -114 240 -242 209 -79 -20 -121 -131 -75 -196 13
-17 20 -31 17 -31 -3 0 -28 14 -56 31 -119 73 -218 237 -256 424 -11 55 -16
82 -19 100 -1 11 -3 22 -4 25 -1 8 -252 7 -256 -1z"/>
<path d="M30546 16579 c-27 -4 -63 -10 -80 -13 -49 -8 -88 -16 -131 -28 -22
-6 -44 -13 -50 -14 -88 -23 -267 -108 -372 -176 -248 -162 -433 -369 -563
-633 -61 -123 -94 -204 -105 -255 -2 -8 -12 -49 -23 -90 -41 -155 -56 -361
-39 -540 10 -111 13 -129 43 -252 2 -10 6 -26 8 -35 2 -10 16 -54 31 -97 170
-505 602 -907 1101 -1026 143 -34 225 -44 359 -44 121 0 189 10 345 49 36 9
74 18 86 20 12 3 54 16 95 29 41 13 108 34 149 46 41 12 94 28 118 36 24 8 64
19 90 25 26 6 56 13 67 15 92 22 204 37 273 38 l42 0 1 151 c4 428 18 555 79
675 64 127 188 184 398 184 36 0 63 4 63 10 1 6 2 39 3 74 l2 62 -763 0 -763
0 0 -73 0 -73 48 0 c45 0 104 -7 167 -19 56 -11 176 -60 209 -86 65 -50 100
-90 128 -147 61 -123 46 -271 -40 -394 -89 -128 -267 -238 -487 -302 -125 -36
-162 -41 -315 -40 -148 0 -183 5 -280 36 -215 69 -389 214 -512 428 -72 124
-150 355 -173 510 -3 20 -8 47 -10 60 -24 121 -24 470 -1 586 2 12 7 39 10 60
14 86 48 214 83 309 145 400 419 634 783 672 472 49 843 -211 1044 -729 20
-51 38 -102 40 -113 2 -11 10 -40 17 -65 15 -52 13 -45 22 -92 l8 -38 72 0 72
0 0 595 c0 391 -3 595 -10 596 -5 1 -35 2 -67 3 l-56 2 -12 -40 c-6 -21 -14
-49 -16 -60 -9 -48 -57 -172 -82 -213 -14 -22 -14 -22 -50 20 -147 171 -439
341 -657 383 -11 2 -31 7 -45 10 -39 10 -299 12 -354 3z"/>
<path d="M51 16470 c-4 -3 -7 -14 -8 -25 0 -24 -11 -216 -18 -330 -8 -136 -14
-245 -21 -371 l-5 -121 65 1 c35 1 68 5 72 9 6 6 29 85 48 162 55 228 136 320
326 370 10 2 106 19 130 22 14 2 175 6 358 9 l333 6 -4 -1053 c-2 -580 -6
-1065 -10 -1079 -3 -14 -8 -41 -11 -60 -18 -145 -79 -259 -166 -313 -60 -37
-176 -60 -307 -61 l-53 -1 0 -72 0 -73 798 0 798 0 -2 63 c-1 34 -2 67 -3 72
0 6 -25 11 -53 11 -349 3 -458 120 -485 519 -4 55 -7 537 -7 1070 l-1 970 315
0 c173 0 338 -4 365 -8 28 -4 70 -9 95 -13 102 -14 224 -74 267 -131 33 -46
63 -109 84 -181 19 -66 25 -88 52 -187 l14 -50 69 0 69 0 -1 45 c-1 45 -13
261 -19 355 -2 28 -7 109 -10 180 -4 72 -9 148 -10 170 -2 22 -3 54 -4 70 l-1
30 -1526 0 c-839 0 -1529 -2 -1533 -5z"/>
<path d="M11999 16472 c-12 -2 -15 -17 -15 -72 l1 -70 60 -1 c339 -5 444 -113
472 -489 9 -115 9 -1603 0 -1710 -4 -47 -9 -98 -12 -115 -3 -16 -8 -46 -11
-65 -3 -19 -6 -37 -7 -40 -4 -30 -51 -120 -80 -155 -37 -43 -115 -89 -173 -99
-62 -12 -121 -19 -179 -21 -33 -2 -62 -3 -65 -4 -3 -1 -6 -32 -6 -71 l1 -70
790 0 790 0 1 70 c0 39 -2 70 -5 71 -3 1 -28 2 -56 4 -181 8 -273 34 -340 96
-47 44 -93 124 -101 178 -3 20 -8 39 -10 42 -2 4 -6 24 -10 45 -3 22 -8 50
-10 64 -3 14 -8 179 -11 368 l-6 342 96 0 96 0 22 -32 c13 -18 60 -82 104
-143 45 -60 245 -334 445 -607 l364 -498 441 0 441 0 0 70 0 70 -41 11 c-163
42 -309 113 -461 227 -143 107 -343 315 -584 607 -123 149 -230 278 -238 287
-17 20 -22 18 88 43 263 59 470 192 595 385 45 68 87 161 101 220 4 19 9 42
12 50 10 36 10 269 1 310 -6 25 -13 55 -15 68 -9 47 -57 154 -96 214 -76 117
-214 234 -353 299 -27 13 -52 24 -55 24 -3 1 -12 4 -20 8 -15 6 -87 29 -105
34 -37 9 -95 23 -120 27 -16 3 -41 8 -55 11 -73 14 -241 18 -920 19 -410 1
-752 0 -761 -2z m1554 -268 c258 -58 406 -263 413 -572 6 -288 -119 -490 -357
-573 -58 -20 -87 -23 -326 -27 l-263 -4 0 596 0 596 231 0 c175 0 247 -4 302
-16z"/>
<path d="M16608 15875 c-2 -2 -32 -5 -68 -9 -57 -5 -90 -10 -198 -32 -52 -10
-190 -58 -259 -90 -386 -175 -675 -523 -739 -889 -3 -16 -9 -49 -14 -72 -8
-45 -5 -270 4 -313 3 -14 11 -50 17 -80 57 -274 256 -558 519 -736 193 -131
429 -219 649 -241 87 -9 289 -9 370 1 179 20 419 100 553 184 14 9 48 30 74
46 52 32 77 52 174 141 86 80 100 96 171 195 112 156 182 329 206 506 8 63 9
245 1 304 -21 157 -94 346 -187 485 -91 135 -267 302 -415 391 -120 72 -315
151 -418 169 -17 3 -34 7 -37 9 -3 2 -28 7 -56 10 -27 4 -66 10 -85 13 -36 5
-257 12 -262 8z m237 -229 c66 -13 80 -16 129 -32 188 -61 346 -202 442 -396
41 -81 67 -142 65 -152 0 -3 6 -25 15 -48 8 -23 16 -53 19 -67 3 -14 7 -37 10
-51 26 -121 27 -436 1 -511 -3 -8 -7 -27 -10 -44 -17 -107 -80 -262 -150 -374
-39 -62 -134 -158 -201 -205 -84 -58 -140 -84 -247 -111 -80 -20 -112 -23
-233 -20 -77 1 -147 5 -155 7 -8 3 -33 8 -55 12 -77 15 -238 102 -309 167
-123 113 -232 302 -272 472 -33 143 -38 184 -38 347 0 154 7 228 35 335 81
311 256 529 499 625 30 12 63 24 73 26 9 2 27 6 40 9 12 3 40 8 62 11 22 4 41
7 43 9 5 4 207 -3 237 -9z"/>
<path d="M22570 15815 c-15 -33 -51 -109 -80 -170 -76 -160 -114 -241 -153
-325 -19 -41 -59 -127 -90 -190 -30 -63 -68 -144 -85 -180 -16 -36 -54 -114
-82 -175 -29 -60 -65 -137 -80 -170 -29 -62 -89 -189 -167 -355 -25 -52 -59
-124 -75 -160 -125 -274 -197 -374 -302 -420 -52 -24 -82 -30 -181 -37 -44 -3
-82 -7 -85 -10 -2 -2 -5 -33 -5 -68 l-2 -65 549 0 548 0 0 70 0 70 -72 1 c-40
0 -84 2 -98 5 -14 2 -37 6 -51 8 -89 13 -149 68 -149 136 0 35 30 130 65 205
60 128 93 202 99 223 4 12 10 22 14 23 4 1 205 2 447 3 l440 1 17 -35 c147
-309 172 -393 138 -465 -33 -69 -122 -101 -287 -104 l-63 -1 0 -70 0 -70 665
0 665 0 0 70 0 70 -57 1 c-32 0 -65 2 -73 4 -8 2 -28 6 -44 9 -93 18 -201 108
-256 213 -14 26 -32 59 -41 73 -8 14 -30 59 -49 100 -18 41 -62 135 -97 208
-35 72 -63 134 -63 136 0 2 -31 68 -68 147 -76 158 -104 219 -152 324 -17 39
-36 78 -41 88 -5 10 -52 109 -103 220 -52 111 -114 245 -139 297 -25 52 -64
136 -87 185 -22 50 -57 124 -77 165 l-35 75 -66 0 -65 0 -27 -60z m15 -757
c26 -57 76 -164 111 -238 34 -74 85 -184 114 -245 28 -60 52 -114 53 -119 1
-6 -132 -10 -331 -10 -182 -1 -332 2 -332 5 0 6 30 72 127 279 31 66 73 156
133 285 10 22 29 63 42 92 13 29 26 52 29 53 3 0 27 -46 54 -102z"/>
<path d="M37216 15799 c-20 -42 -65 -137 -100 -210 -35 -74 -79 -168 -98 -209
-44 -94 -107 -227 -165 -350 -25 -52 -78 -165 -118 -250 -40 -85 -91 -194
-113 -241 -42 -88 -97 -206 -159 -339 -161 -345 -213 -433 -298 -498 -49 -38
-156 -68 -250 -71 -38 -2 -72 -5 -74 -7 -3 -3 -6 -34 -6 -69 l-2 -65 552 0
551 0 -1 65 c0 35 -3 66 -5 68 -3 3 -48 7 -100 10 -116 7 -144 13 -195 37 -87
42 -93 121 -23 280 36 79 107 234 121 260 l13 25 438 0 c241 0 441 -2 445 -5
4 -3 18 -30 30 -60 13 -30 36 -82 51 -115 52 -115 69 -160 80 -204 38 -147
-56 -216 -297 -220 l-63 -1 0 -70 0 -70 665 0 665 0 0 70 0 70 -52 1 c-29 0
-60 2 -68 4 -8 1 -28 5 -45 8 -83 14 -168 74 -224 156 -40 58 -130 230 -189
361 -33 72 -77 166 -158 338 -30 63 -54 115 -54 117 0 1 -34 73 -75 159 -41
86 -75 158 -75 160 0 2 -24 55 -54 117 -29 63 -69 148 -89 189 -19 41 -53 113
-74 160 -22 47 -80 171 -128 275 -48 105 -89 192 -92 195 -2 2 -33 5 -68 5
l-63 1 -36 -77z m8 -711 c18 -40 49 -107 69 -148 19 -41 48 -104 65 -140 16
-36 60 -129 96 -207 36 -78 66 -143 66 -145 0 -2 -151 -3 -335 -3 -184 0 -335
1 -335 2 0 5 46 106 104 226 36 76 66 140 66 142 0 1 26 58 59 126 32 68 68
145 80 172 12 26 24 47 26 47 3 0 20 -33 39 -72z"/>
<path d="M3670 15718 l0 -68 53 -1 c168 -3 274 -40 323 -113 29 -45 54 -137
61 -224 7 -86 9 -1216 3 -1320 -17 -266 -115 -360 -377 -362 l-63 0 0 -70 0
-70 685 0 685 0 0 70 0 70 -62 1 c-150 2 -249 35 -298 96 -69 87 -82 182 -84
586 l-2 287 601 0 600 0 -1 -272 c-1 -257 -6 -362 -20 -433 -4 -16 -7 -36 -7
-43 0 -7 -14 -41 -31 -75 -49 -98 -139 -141 -307 -146 -41 -1 -76 -5 -79 -7
-2 -3 -5 -34 -5 -70 l-1 -64 688 0 688 0 0 70 0 70 -75 1 c-41 1 -78 2 -82 3
-21 5 -89 18 -93 18 -16 0 -79 40 -102 65 -22 23 -61 95 -57 105 0 2 -4 15
-10 29 -5 15 -13 57 -17 95 -10 88 -10 1297 -1 1384 27 239 118 315 385 319
l52 1 0 68 0 67 -687 0 -687 0 -1 -68 -1 -67 50 -1 c169 -3 276 -39 321 -107
62 -94 78 -202 79 -547 l1 -180 -600 0 -600 0 1 195 c0 213 8 347 23 398 5 17
8 32 6 32 -2 0 3 17 12 38 52 124 140 167 356 171 l47 1 0 68 0 67 -685 0
-685 0 0 -67z"/>
<path d="M7350 15718 l0 -68 60 -1 c239 -5 334 -69 366 -246 19 -101 22 -227
19 -798 -2 -616 -4 -672 -27 -760 -39 -150 -139 -212 -350 -214 l-68 -1 0 -70
0 -70 1083 0 1083 0 1 23 c0 12 4 76 8 142 4 66 9 138 10 160 5 104 17 272 21
288 6 35 -5 44 -59 43 -48 -2 -52 -3 -58 -31 -39 -163 -75 -244 -131 -296 -53
-51 -124 -78 -253 -96 -60 -9 -473 -10 -530 -2 -56 8 -125 41 -157 75 -23 25
-74 124 -63 124 2 0 -1 15 -6 33 -13 45 -23 228 -23 447 l-1 185 135 1 c77 0
165 -6 205 -13 92 -19 86 -17 115 -32 86 -46 116 -122 119 -306 l1 -51 63 2
c34 1 64 2 67 3 3 0 5 231 5 513 l0 512 -67 1 -68 1 -1 -50 c-2 -118 -11 -172
-37 -222 -50 -99 -143 -127 -417 -129 l-120 0 0 370 c-1 204 0 375 2 380 2 7
96 10 276 9 308 -2 387 -8 490 -38 73 -21 143 -70 173 -122 19 -33 81 -204 82
-227 0 -1 3 -14 7 -28 6 -23 10 -25 58 -23 29 1 56 2 60 3 5 0 6 13 3 29 -3
15 -8 61 -11 102 -8 123 -15 211 -20 275 -3 33 -8 98 -11 145 -3 47 -8 87 -11
90 -2 3 -459 5 -1014 5 l-1009 0 0 -67z"/>
<path d="M18330 15718 l0 -68 38 -1 c20 0 45 -2 54 -4 9 -2 34 -5 55 -8 138
-20 270 -118 419 -312 52 -69 291 -395 576 -789 l79 -108 -2 -224 c-2 -306
-21 -402 -95 -484 -49 -54 -124 -81 -244 -87 -52 -3 -97 -7 -100 -10 -2 -2 -5
-33 -5 -69 l-1 -64 683 0 683 0 0 70 0 70 -65 1 c-220 4 -314 63 -351 219 -22
94 -27 160 -28 380 l-1 205 30 40 c17 22 111 150 210 285 470 644 537 726 641
795 93 62 195 91 327 94 l37 1 0 68 0 67 -550 0 -550 0 0 -67 0 -68 48 -1
c124 -2 207 -26 239 -68 19 -25 15 -76 -11 -135 -29 -66 -51 -99 -220 -326
-321 -433 -310 -420 -323 -407 -6 7 -117 157 -247 335 -228 314 -283 399 -292
460 -11 67 37 114 130 128 28 4 56 8 61 9 6 1 31 3 58 3 l47 2 0 68 0 67 -665
0 -665 0 0 -67z"/>
<path d="M24630 15718 l0 -68 58 -1 c159 -3 243 -29 300 -93 35 -40 55 -82 65
-136 4 -19 10 -46 14 -60 10 -38 13 -1325 2 -1403 -32 -248 -119 -324 -376
-326 l-63 -1 0 -70 0 -70 1155 0 c1093 0 1155 1 1156 18 1 9 3 28 4 42 1 14 5
75 9 135 4 61 9 126 11 145 2 19 6 76 10 125 3 50 8 113 9 141 l4 50 -57 0
-56 -1 -12 -40 c-7 -22 -24 -79 -38 -127 -33 -114 -71 -163 -154 -204 -60 -30
-82 -36 -196 -52 -66 -9 -618 -9 -671 0 -138 24 -204 99 -232 268 -9 58 -9
1321 0 1378 27 159 89 236 211 262 69 14 105 18 172 19 l51 1 -1 68 0 67 -687
0 -688 0 0 -67z"/>
<path d="M32804 15781 c-2 -2 -4 -33 -4 -68 l0 -63 48 -1 c128 -3 180 -12 242
-44 75 -38 119 -107 135 -210 4 -28 9 -63 12 -80 3 -16 6 -257 8 -535 1 -278
5 -520 9 -537 3 -18 8 -45 11 -60 14 -81 19 -96 53 -183 121 -309 396 -514
775 -578 53 -9 337 -8 397 1 215 32 431 141 556 280 52 58 109 140 141 203 22
42 69 183 78 232 3 15 8 38 11 52 7 29 12 256 18 775 2 204 6 381 10 395 3 14
9 41 13 60 10 54 30 96 65 135 27 31 88 72 111 73 4 1 24 4 44 8 44 8 80 11
151 13 l52 1 0 68 0 67 -572 -1 c-315 -1 -575 -2 -578 -3 -3 0 -6 -30 -6 -66
l0 -65 50 -1 c154 -3 248 -30 299 -85 30 -32 56 -82 63 -121 3 -15 7 -30 10
-35 17 -28 27 -1016 11 -1153 -22 -188 -113 -344 -257 -440 -173 -115 -438
-143 -655 -70 -185 63 -330 226 -371 420 -2 11 -8 36 -12 55 -9 44 -9 1059 0
1121 34 233 120 302 383 308 l51 1 -2 63 c-1 34 -2 64 -3 67 -1 6 -1341 7
-1347 1z"/>
<path d="M39291 15780 c-4 -3 -7 -33 -7 -67 l0 -63 51 -1 c206 -3 297 -44 346
-153 22 -50 26 -64 37 -136 10 -62 9 -1394 -1 -1450 -20 -113 -57 -183 -119
-225 -48 -33 -99 -45 -208 -52 -52 -3 -97 -7 -100 -10 -2 -2 -5 -33 -5 -69
l-1 -64 688 0 688 0 0 70 0 70 -72 1 c-40 0 -80 2 -88 4 -8 1 -28 5 -45 8
-136 23 -215 125 -233 301 -3 33 -6 160 -7 280 l0 220 54 1 54 1 381 -478 381
-478 388 0 387 0 0 70 c0 56 -3 70 -15 70 -20 0 -21 0 -98 22 -223 61 -396
192 -706 531 -71 78 -158 174 -194 212 -36 39 -64 71 -62 73 1 2 15 5 31 8 16
2 58 14 93 25 241 76 411 220 481 406 27 73 32 104 34 207 5 243 -125 444
-361 556 -37 18 -75 36 -84 40 -15 8 -77 26 -121 36 -10 2 -28 6 -40 9 -32 7
-66 13 -118 21 -54 8 -1397 12 -1409 4z m1338 -224 c98 -26 179 -83 228 -160
123 -191 93 -489 -63 -626 -46 -40 -143 -86 -205 -96 -48 -8 -346 -13 -366 -6
-18 6 -19 898 -2 904 7 2 87 3 178 2 120 -1 184 -6 230 -18z"/>
<path d="M42360 15718 l0 -68 53 -1 c117 -2 180 -14 241 -47 87 -47 129 -135
143 -302 9 -101 9 -1204 0 -1305 -3 -44 -9 -91 -12 -105 -3 -14 -7 -34 -9 -46
-9 -43 -49 -115 -79 -140 -24 -20 -82 -51 -82 -44 0 1 -13 -4 -30 -10 -16 -7
-68 -14 -115 -17 -47 -2 -91 -6 -97 -8 -9 -3 -13 -26 -13 -71 l0 -66 738 5
c405 2 748 7 762 10 14 3 45 8 70 11 45 6 76 12 118 21 12 3 31 7 41 9 373 83
665 299 805 597 81 171 101 270 101 499 0 161 -5 213 -29 305 -1 6 -6 24 -10
42 -16 67 -76 196 -130 277 -61 91 -190 220 -282 281 -167 111 -408 195 -634
221 -30 3 -68 8 -85 11 -16 2 -353 5 -747 6 l-718 3 0 -68z m1400 -152 c83
-12 105 -17 170 -37 75 -24 190 -78 190 -90 0 -4 8 -10 18 -13 28 -9 119 -103
161 -165 124 -185 173 -442 147 -771 -4 -51 -9 -96 -11 -100 -2 -3 -6 -23 -9
-44 -26 -161 -109 -324 -222 -432 -76 -74 -217 -151 -309 -170 -38 -7 -70 -14
-95 -20 -14 -4 -96 -8 -183 -10 -174 -3 -220 6 -270 53 -24 24 -32 43 -55 123
-7 26 -8 1675 -1 1680 10 7 416 4 469 -4z"/>
<path d="M23988 11785 c-2 -1 -34 -5 -73 -8 -108 -8 -212 -48 -281 -109 -129
-113 -146 -317 -38 -437 62 -69 148 -108 333 -152 48 -12 91 -22 96 -23 58
-14 104 -36 133 -63 31 -29 34 -37 29 -69 -7 -45 -20 -60 -71 -86 -67 -34
-229 -30 -349 9 -49 16 -127 54 -154 75 -13 10 -33 3 -33 -12 0 -4 -15 -41
-34 -82 -51 -112 -53 -102 22 -141 147 -77 332 -107 522 -84 174 21 308 114
353 248 15 44 17 142 3 198 -15 65 -94 143 -185 182 -40 18 -230 72 -291 83
-82 15 -154 55 -168 94 -29 85 53 153 187 155 108 2 191 -18 292 -68 l45 -22
12 26 c28 65 72 174 72 181 0 21 -193 87 -282 95 -97 10 -137 13 -140 10z"/>
<path d="M26608 11785 c-2 -2 -28 -5 -58 -8 -277 -28 -493 -224 -535 -486 -43
-265 88 -520 323 -633 112 -53 299 -77 417 -54 17 3 42 8 56 11 76 14 182 68
254 129 75 62 163 201 180 282 26 129 26 204 -1 328 -11 51 -51 130 -96 191
-90 121 -253 214 -406 230 -93 10 -131 13 -134 10z m136 -250 c64 -19 105 -46
154 -99 62 -67 84 -125 88 -231 3 -102 -13 -163 -65 -238 -70 -102 -228 -161
-356 -134 -114 24 -199 91 -249 196 -28 60 -30 75 -30 161 0 80 4 104 26 152
46 99 135 175 232 199 53 12 149 9 200 -6z"/>
<path d="M12885 11761 c-3 -2 -5 -261 -5 -575 l0 -571 123 0 c67 -1 124 3 127
7 3 3 5 149 5 322 0 174 2 316 5 316 3 -1 75 -116 160 -256 85 -140 159 -258
165 -262 5 -4 35 -7 66 -8 l56 0 54 90 c30 50 63 106 74 126 11 19 61 103 110
185 l90 150 5 -335 5 -335 120 0 c66 -1 122 2 125 6 3 4 5 126 4 271 -1 145
-2 400 -3 568 l-1 306 -111 -1 -111 0 -109 -185 c-60 -102 -153 -258 -206
-348 -53 -90 -99 -165 -102 -166 -3 -2 -101 154 -217 348 l-210 351 -108 0
c-59 1 -109 -1 -111 -4z"/>
<path d="M14930 11190 l0 -575 443 0 442 0 3 108 3 107 -311 0 -310 0 0 130 0
130 265 0 265 0 0 105 0 105 -265 0 -265 0 0 123 0 122 300 0 300 0 0 110 0
110 -435 0 -435 1 0 -576z"/>
<path d="M16520 11190 l0 -575 123 0 122 0 5 329 5 328 164 -268 164 -269 61
0 62 -1 46 76 c25 41 99 165 164 275 l119 200 5 -335 5 -335 115 -1 c63 0 120
1 125 3 7 2 10 76 9 211 -1 114 -2 371 -3 572 l-1 366 -109 -1 c-60 0 -112 -3
-114 -5 -5 -5 -191 -318 -262 -440 -70 -120 -145 -244 -153 -251 -4 -4 -102
151 -218 344 l-211 352 -112 0 -111 0 0 -575z"/>
<path d="M18570 11190 l0 -576 358 2 c196 1 368 4 382 7 119 22 188 55 245
119 53 57 68 100 68 189 1 125 -48 204 -163 265 -36 19 -39 23 -21 29 27 8 90
80 108 122 8 20 17 63 20 97 12 139 -79 254 -232 295 -83 22 -119 24 -437 25
l-328 2 0 -576z m634 352 c61 -21 90 -57 90 -112 0 -56 -20 -86 -72 -112 -41
-19 -62 -22 -211 -22 l-166 -1 -3 133 -3 133 158 -2 c118 0 170 -5 207 -17z
m68 -466 c101 -44 108 -184 11 -232 -33 -16 -67 -19 -240 -22 l-203 -4 0 134
c0 74 2 137 5 139 2 3 91 4 197 3 152 -1 201 -5 230 -18z"/>
<path d="M20310 11190 l0 -576 445 1 c245 0 446 3 446 8 1 4 2 52 3 107 l2
100 -313 0 -313 0 0 130 0 130 265 0 265 0 0 105 0 105 -265 0 -266 0 3 123 3
122 298 0 297 0 0 110 0 110 -435 0 -435 0 0 -575z"/>
<path d="M21905 11761 c-3 -2 -5 -261 -5 -575 l0 -571 135 0 135 -1 2 160 3
160 115 1 116 1 109 -158 c60 -87 111 -159 114 -159 32 -7 281 -3 281 4 0 5
-52 84 -116 175 -64 91 -118 171 -121 178 -2 7 5 15 16 19 38 12 117 82 149
132 17 26 37 75 45 108 14 61 15 182 2 226 -17 58 -60 132 -99 169 -36 36
-176 119 -176 106 0 -3 -11 -1 -26 4 -14 6 -44 13 -67 16 -50 7 -605 12 -612
5z m575 -231 c59 -16 96 -44 120 -89 38 -75 27 -171 -25 -224 -51 -52 -101
-65 -264 -66 l-141 -2 0 195 c0 147 3 195 13 199 25 8 255 -2 297 -13z"/>
<path d="M27950 11190 l0 -576 132 1 133 0 0 343 c0 188 1 342 2 342 1 0 73
-87 160 -192 86 -106 213 -260 281 -343 l124 -150 112 -1 111 0 0 575 0 576
-130 0 -130 0 -5 -344 -5 -344 -45 58 c-25 31 -51 63 -58 71 -8 8 -57 67 -110
133 -53 65 -154 187 -223 272 l-126 154 -112 1 -111 0 0 -576z"/>
<path d="M29764 11755 c-2 -5 -3 -264 -2 -575 l3 -565 418 0 c229 0 418 2 418
5 5 17 4 210 -1 211 -3 1 -131 2 -285 3 l-280 1 -3 465 -2 466 -131 0 c-80 -1
-133 -5 -135 -11z"/>
<path d="M30973 11750 c2 -9 100 -176 218 -371 l214 -354 1 -200 c1 -110 2
-202 3 -205 2 -9 255 -7 261 2 3 4 5 94 5 200 l-1 193 218 362 c120 199 221
368 223 376 5 10 -21 13 -126 12 l-132 0 -25 -40 c-14 -22 -31 -49 -37 -60 -6
-11 -46 -80 -90 -152 -44 -73 -96 -160 -116 -193 l-36 -61 -152 253 -151 253
-141 0 c-124 1 -140 -1 -136 -15z"/>
</g>
</svg>
